<svg width="512" height="512" viewBox="0 0 512 512" fill="none" xmlns="http://www.w3.org/2000/svg">
<rect width="512" height="512" rx="95" fill="url(#paint0_linear)"/>
<path d="M233.167 111.167C229.519 111.167 226.583 114.103 226.583 117.75V124.334C226.583 127.981 229.519 130.917 233.167 130.917H299.026L299.129 173.606C299.142 179.039 303.544 183.44 308.978 183.455L351.667 183.568V371.206C351.667 376.847 347.433 381.081 341.792 381.081H190.375C184.733 381.081 180.5 376.847 180.5 371.206V361.331C180.5 357.683 177.564 354.747 173.917 354.747H167.333C163.686 354.747 160.75 357.683 160.75 361.331V371.206C160.75 387.447 174.134 400.831 190.375 400.831H341.792C358.033 400.831 371.417 387.447 371.417 371.206V170.504C371.416 167.885 370.376 165.374 368.524 163.522L319.058 114.057C317.207 112.204 314.696 111.164 312.077 111.164L233.167 111.167ZM160.75 249.417C160.75 253.064 163.686 256 167.333 256H173.917C177.564 256 180.5 253.064 180.5 249.417V183.584C180.5 179.937 177.564 177 173.917 177H167.333C163.686 177 160.75 179.937 160.75 183.584V249.417Z" fill="white"/>
<path d="M190.375 111.164C174.134 111.164 160.75 124.547 160.75 140.789V157.247C160.75 160.895 163.686 163.831 167.334 163.831H173.917C177.564 163.831 180.5 160.895 180.5 157.247V140.789C180.5 135.148 184.734 130.914 190.375 130.914H206.834C210.481 130.914 213.417 127.978 213.417 124.331V117.747C213.417 114.1 210.481 111.164 206.834 111.164H190.375ZM88.3337 269.164C81.0393 269.164 75.167 275.037 75.167 282.331V328.414C75.167 335.709 81.0393 341.581 88.3337 341.581H252.917C260.211 341.581 266.084 335.709 266.084 328.414V282.331C266.084 275.037 260.211 269.164 252.917 269.164H88.3337ZM169.931 286.201C179.989 286.201 187.225 294.183 187.225 305.373C187.225 316.625 179.989 324.544 169.931 324.544C159.999 324.544 152.585 316.625 152.585 305.373C152.585 294.12 159.747 286.201 169.931 286.201ZM208.248 286.201C211.203 286.201 214.038 286.887 217.056 288.207C217.81 286.825 218.502 286.265 219.885 286.265C221.833 286.265 222.713 287.084 222.713 289.724L222.779 297.696C222.779 300.336 222.142 301.284 219.565 301.284C217.679 301.284 216.929 300.339 216.363 298.391C215.357 294.807 213.534 292.926 209.008 292.926C202.785 292.926 199.262 297.201 199.262 305.373C199.262 313.544 203.031 318.012 209.317 318.012C210.888 318.012 212.842 317.623 215.167 316.932V312.162H211.708C209.131 312.162 207.877 311.344 207.877 308.767C207.877 306.19 209.131 305.373 211.708 305.373H222.779C225.357 305.373 226.675 306.062 226.675 308.703C226.675 310.903 225.481 312.097 223.281 312.097H222.779V319.388V319.761C222.779 320.892 222.72 321.263 221.712 321.895C220.014 322.901 214.791 324.544 208.442 324.544C197.63 324.544 190.402 316.688 190.402 305.372C190.402 294.623 197.751 286.201 208.249 286.201L208.248 286.201ZM118.293 287.204H131.421C133.936 287.204 135.201 288.147 135.201 290.599C135.201 293.113 133.936 293.993 131.421 293.993H128.721V316.868H142.685V311.403C142.685 308.762 143.563 307.507 146.015 307.507C148.529 307.507 149.345 308.826 149.345 311.403V320.828C149.345 323.027 148.708 323.592 146.131 323.592H118.293C115.778 323.592 114.577 322.713 114.577 320.198C114.577 317.684 115.778 316.868 118.293 316.868H120.993V293.993H118.293C115.778 293.993 114.577 293.113 114.577 290.599C114.577 288.147 115.778 287.204 118.293 287.204V287.204ZM169.931 293.299C164.776 293.299 161.445 297.578 161.445 305.373C161.445 313.168 164.902 317.498 169.931 317.498C175.023 317.498 178.417 313.23 178.417 305.373C178.417 297.515 175.023 293.299 169.931 293.299Z" fill="#11C111"/>
<defs>
<linearGradient id="paint0_linear" x1="472" y1="32.5" x2="24" y2="480.5" gradientUnits="userSpaceOnUse">
<stop stop-color="#020202"/>
<stop offset="1"/>
</linearGradient>
</defs>
</svg>
